<svg class="ct-icon" viewBox="0 0 15 15" xmlns="http://www.w3.org/2000/svg" fill="currentColor">
  <path d="M7.5 6c-.1.5-.2 1-.3 1.4 0 .6-.1 1.3-.3 2-.2.7-.5 1.4-1 1.9-.5.6-1.3.9-2.2.9H0v-1.4h3.7c.6 0 .9-.2 1.2-.5.3-.3.5-.7.7-1.3.1-.5.2-1 .3-1.6v-.3c0-.5.1-1 .3-1.5.2-.7.5-1.4 1-1.9.5-.6 1.3-.9 2.2-.9h3l-1.6-1.6 1-1L15 3.5l-3.3 3.3-1-1 1.6-1.6h-3c-.6 0-.9.2-1.2.5-.2.3-.5.7-.6 1.3zM4.9 4.7c.2-.4.4-.9.7-1.3-.5-.4-1.1-.6-1.9-.6H0v1.4h3.7c.6 0 1 .2 1.2.5zm5.8 4.5 1.6 1.6h-3c-.6 0-.9-.2-1.2-.5-.2.4-.4.9-.6 1.3.5.4 1.1.6 1.8.6h3l-1.6 1.6 1 1 3.3-3.3-3.3-3.3-1 1z"/>
</svg>
