<svg xmlns="http://www.w3.org/2000/svg" version="1.1" xmlns:xlink="http://www.w3.org/1999/xlink" width="512" height="512" x="0" y="0" viewBox="0 0 550 550" style="enable-background:new 0 0 512 512" xml:space="preserve" class=""><g><path d="M309.604 530.998H148.118a8 8 0 0 1-8-8v-96.403c-26.074-3.877-46.139-26.413-46.139-53.549v-61.209H44.306a7.999 7.999 0 0 1-6.509-12.65l56.199-78.68c.667-54.771 22.469-105.481 61.563-143.034 39.252-37.705 91.91-58.47 148.272-58.472 55.963-.001 108.64 21.854 148.325 61.54s61.539 92.362 61.538 148.327c-.002 87.984-50.727 164.842-129.226 195.806-40.618 16.021-66.864 54.127-66.864 97.079v1.246a8 8 0 0 1-8 7.999zm-153.486-16h145.676c1.23-21.884 8.433-42.871 21.016-61.067 13.771-19.914 33.062-35.178 55.788-44.143 72.347-28.535 119.095-99.552 119.097-180.921.001-51.691-20.189-100.35-56.853-137.013C404.179 55.191 355.521 35 303.83 35.002c-108.702.003-193.851 82.623-193.851 188.091a8.003 8.003 0 0 1-1.49 4.65l-48.638 68.094h42.128a8 8 0 0 1 8 8v69.209c0 21.029 17.109 38.139 38.139 38.139h46.139a8 8 0 0 1 0 16h-38.139z" fill="#000000" opacity="1" data-original="#000000" class=""></path><path d="M148.118 357.977h-46.139a8 8 0 0 1 0-16h46.139a8 8 0 0 1 0 16zM303.837 392.504c-41.925 0-83.85-15.959-115.767-47.875-63.834-63.835-63.834-167.701 0-231.535 30.922-30.923 72.036-47.953 115.767-47.953 43.73 0 84.844 17.03 115.767 47.953 30.922 30.922 47.952 72.036 47.952 115.767s-17.03 84.845-47.952 115.768c-31.917 31.916-73.842 47.875-115.767 47.875zm0-311.363c-39.457 0-76.553 15.366-104.453 43.266-57.596 57.596-57.596 151.312 0 208.907 57.595 57.595 151.311 57.597 208.905 0 27.901-27.9 43.267-64.996 43.267-104.454s-15.365-76.553-43.267-104.454c-27.899-27.899-64.995-43.265-104.452-43.265z" fill="#000000" opacity="1" data-original="#000000" class=""></path><path d="M303.837 308.306c-32.319 0-58.612-26.293-58.612-58.612s26.293-58.612 58.612-58.612c32.318 0 58.611 26.293 58.611 58.612s-26.293 58.612-58.611 58.612zm0-101.224c-23.496 0-42.612 19.116-42.612 42.612s19.116 42.612 42.612 42.612 42.611-19.116 42.611-42.612-19.115-42.612-42.611-42.612z" fill="#000000" opacity="1" data-original="#000000" class=""></path><path d="M303.837 207.082c-21.155 0-38.367-17.211-38.367-38.367 0-21.155 17.212-38.367 38.367-38.367s38.367 17.211 38.367 38.367-17.212 38.367-38.367 38.367zm0-60.734c-12.333 0-22.367 10.034-22.367 22.367s10.034 22.367 22.367 22.367 22.367-10.034 22.367-22.367-10.034-22.367-22.367-22.367zM253.225 257.694h-33.898a8 8 0 0 1 0-16h33.898a8 8 0 0 1 0 16zM259.688 232.918a7.955 7.955 0 0 1-3.571-.847l-30.245-15.123a8 8 0 0 1-4.422-7.155v-20.245a8 8 0 0 1 16 0v15.3l25.823 12.912a8 8 0 0 1 3.578 10.733 8.002 8.002 0 0 1-7.163 4.425zM229.45 319.017a8 8 0 0 1-8-8v-20.244a8 8 0 0 1 4.422-7.155l30.771-15.386a8 8 0 0 1 7.155 14.311l-26.349 13.175v15.3a7.999 7.999 0 0 1-7.999 7.999zM388.347 257.694h-33.898a8 8 0 0 1 0-16h33.898a8 8 0 0 1 0 16zM347.984 232.918a8 8 0 0 1-3.584-15.157l25.823-12.912v-15.3a8 8 0 0 1 16 0v20.245a8 8 0 0 1-4.422 7.155l-30.245 15.123a7.968 7.968 0 0 1-3.572.846zM378.224 319.017a8 8 0 0 1-8-8v-15.3l-26.35-13.175a8 8 0 0 1 7.156-14.311l30.771 15.386a8 8 0 0 1 4.422 7.155v20.244a8 8 0 0 1-7.999 8.001z" fill="#000000" opacity="1" data-original="#000000" class=""></path></g></svg>